<svg xmlns="http://www.w3.org/2000/svg" viewBox="0 0 64 64" role="img" aria-label="Northstar CRM icon">
  <defs>
    <linearGradient id="northstar-logo-gradient" x1="12" y1="10" x2="52" y2="54" gradientUnits="userSpaceOnUse">
      <stop stop-color="#0f766e"/>
      <stop offset="1" stop-color="#1d4ed8"/>
    </linearGradient>
  </defs>
  <rect width="64" height="64" rx="14" fill="url(#northstar-logo-gradient)"/>
  <g fill="none" stroke="#ffffff" stroke-linecap="round" stroke-linejoin="round" stroke-width="5">
    <path d="M31.8 6.3a1.35 1.35 0 0 1 2.6 0l4.2 16.4a5.3 5.3 0 0 0 3.8 3.8l16.4 4.2a1.35 1.35 0 0 1 0 2.6l-16.4 4.2a5.3 5.3 0 0 0-3.8 3.8l-4.2 16.4a1.35 1.35 0 0 1-2.6 0l-4.2-16.4a5.3 5.3 0 0 0-3.8-3.8L7.4 33.3a1.35 1.35 0 0 1 0-2.6l16.4-4.2a5.3 5.3 0 0 0 3.8-3.8z"/>
    <path d="M52 8v10"/>
    <path d="M57 13H47"/>
    <path d="M12 46v7"/>
    <path d="M15.5 49.5h-7"/>
  </g>
</svg>
