<svg xmlns="http://www.w3.org/2000/svg" viewBox="0 0 64 64" role="img" aria-label="Northstar CRM icon">
  <defs>
    <linearGradient id="northstar-logo-gradient" x1="12" y1="10" x2="52" y2="54" gradientUnits="userSpaceOnUse">
      <stop stop-color="#0f766e"/>
      <stop offset="1" stop-color="#1d4ed8"/>
    </linearGradient>
  </defs>
  <rect width="64" height="64" rx="14" fill="url(#northstar-logo-gradient)"/>
  <path d="M31.8 9.5l5.2 15.7a3.5 3.5 0 0 0 2.2 2.2l15.7 5.2-15.7 5.2a3.5 3.5 0 0 0-2.2 2.2l-5.2 15.7-5.2-15.7a3.5 3.5 0 0 0-2.2-2.2L8.7 32.6l15.7-5.2a3.5 3.5 0 0 0 2.2-2.2L31.8 9.5z" fill="#ffffff"/>
  <path d="M13.5 12.5v10M8.5 17.5h10M49 44v8M45 48h8" stroke="#ffffff" stroke-width="4.2" stroke-linecap="round"/>
</svg>
